<svg width="229" height="229" viewBox="0 0 229 229" fill="none" xmlns="http://www.w3.org/2000/svg">
<g opacity="0.988235">
<path d="M101.25 0.5H102.75C102.833 0.916667 103.167 1.08333 103.75 1L105.25 2.5H105.75L109.25 6H109.75L110.5 6.75V7.25L111.5 8.25V9.25L112 9.75V10.25C112.417 10.3333 112.583 10.6667 112.5 11.25L113.5 12.25C113.417 12.8333 113.583 13.1667 114 13.25V14.25C114.417 14.3333 114.583 14.6667 114.5 15.25L115.25 16L116.25 15C117.5 15.25 118.25 15 118.5 14.25V13.25C118.917 13.1667 119.083 12.8333 119 12.25L121.25 10H121.75L122.75 9H123.25L127.25 5C127.917 5 128.333 5 128.5 5V5.75L128 6.25V7H128.75L129.25 6.5H130.25L131.75 5.5C132 5.58333 132.083 5.83333 132 6.25L132.75 7H134.75L135.25 7.5H141.25L142 8.25C142.167 8.87333 142.083 9.12333 141.75 9H138.25L137.5 9.75V10.25L138.25 11C138.833 10.9167 139.167 11.0833 139.25 11.5H140V12.5H137.75L137.25 12C136.417 12.1667 135.917 12 135.75 11.5H134.25C134.083 11 133.583 10.8333 132.75 11L132.25 11.5C131.833 11.4167 131.583 11.5 131.5 11.75L131.75 12H134.75L135.5 12.75C135.667 13.3733 135.583 13.6233 135.25 13.5H132.25C131.583 13.7933 131.333 14.2933 131.5 15H132.25L132.75 15.5H135V16.25L134.5 16.75V17.5H133.75L133.25 18C132.833 17.9167 132.583 18 132.5 18.25L133.5 19.25V19.75C133.083 19.8333 132.917 20.1667 133 20.75L131.25 22.5C130.583 22.3333 130.167 22.4167 130 22.75L130.75 23.5H131.25L132.75 24.5H133.75L134.25 25H134.75L136.25 26H137.25L137.75 26.5H138.25L138.75 27H139.25L139.75 27.5H140.25C140.333 27.9167 140.667 28.0833 141.25 28L143.75 30H144.25C144.333 30.4167 144.667 30.5833 145.25 30.5L146.25 31.5H146.75L147.75 32.5H148.25L149.75 34H150.25L152.75 36H153.25L154.75 37H155.75L157.25 38H158.25L158.75 38.5H159.75C159.833 38.9167 160.167 39.0833 160.75 39L162.25 40.5H162.75L164.5 42.25V43.25L169.25 48H169.75L170.75 49H171.75C171.833 49.4167 172.167 49.5833 172.75 49.5L175 51.75V52.25L176 53.75V57.25L177 58.75V59.75L178 61.25V62.25L178.5 62.75V63.25L179 63.75V64.25C179.417 64.3333 179.583 64.6667 179.5 65.25L180.5 66.25C180.333 67.0833 180.5 67.5833 181 67.75V69.25L181.5 69.75C181.25 70.8333 181.417 71.5 182 71.75V73.75L182.5 74.25V76.25C182.083 76.3333 181.917 76.6667 182 77.25L176.75 82.5H176.25L175.75 83H175.25C175.167 83.4167 174.833 83.5833 174.25 83.5L171.5 86.25V86.75L170.5 87.75V88.25L169.5 89.75V90.75L169 91.25V91.75L168 93.25V94.25L167.5 94.75V98.75L168 99.25V107.25L168.5 107.75V109.25L169.5 110.75V111.75L170 112.25V113.25C170.5 113.417 170.667 113.917 170.5 114.75L171 115.25C170.917 115.833 171.083 116.167 171.5 116.25V117.25L172 117.75V119.75L172.5 120.25V123.75L173 124.25V128.75C172.5 128.917 172.333 129.417 172.5 130.25L177.5 135.25V136H178.5V136.75L180.75 139H181.25L183 140.75V141.25C183.417 141.333 183.583 141.667 183.5 142.25L187.75 146.5H188.25L193.25 151.5H193.75L195 152.75V153.25L196 154.25V154.75L198.25 157H198.75L201.5 159.75V160.25L204 162.75V163.25L205.5 164.75V165.25L206.5 166.25V166.75L207 167.25V167.75L208 169.25V170.25L209 171.75V172.75L209.5 173.25V173.75L210 174.25V174.75C210.417 174.833 210.583 175.167 210.5 175.75C210.083 175.833 209.917 176.167 210 176.75L211.25 178H211.75C211.833 178.417 212.167 178.583 212.75 178.5L213.75 179.5H214.25L220.75 186H221.25L225 189.75C224.917 190.333 225.083 190.667 225.5 190.75V191.75L226 192.25V193.25L226.5 193.75V196.25L227 196.75L226.5 197.25V198.25L226 198.75V199.75C225.5 199.917 225.333 200.417 225.5 201.25L226 201.75V202.75L226.5 203.25V203.75L227 204.25V204.75L227.5 205.25V205.75L228.5 207.25V208C228.333 208 227.917 208 227.25 208L226.75 207.5H225.75L224.25 206.5H223.25L222.75 206C222.167 206.083 221.833 205.917 221.75 205.5H220.75L220.25 205H215.25L214.75 204.5H214.25C214.167 204.083 213.833 203.917 213.25 204L212.25 203H211.75L211 202.25V201.75L209 199.75V199.25L203 193.25V192.75L201 190.75V190.25L199.5 188.75V188.25L198.75 187.5H198.25C198.167 187.083 197.833 186.917 197.25 187L196.25 186H195.75L192.5 182.75V182.25L190.75 180.5H190.25L187.5 177.75V177.25L183.25 173H182.5V172H181.75L180.25 170.5H179.75L178.25 169H177.75L177 168.25V167.75L171.25 162H170.75L169.25 160.5C168.667 160.583 168.333 160.417 168.25 160H166.75L166.25 159.5H165.75C165.667 159.083 165.333 158.917 164.75 159L161.5 155.75C161.75 155 161.5 154.75 160.75 155C160.667 154.583 160.333 154.417 159.75 154.5L152.5 147.25V146.75L151 145.25C151.083 144.667 150.917 144.333 150.5 144.25V143.25C150 143.083 149.833 142.583 150 141.75L149 140.75V140.25L147.25 138.5C146.667 138.583 146.333 138.417 146.25 138L145.5 138.75V139.25L144.5 140.25V140.75L143.5 141.75V142.25L142.5 143.25C142.583 143.833 142.417 144.167 142 144.25L143.75 146H144.5V146.75L145 147.25V148.25C145.417 148.333 145.583 148.667 145.5 149.25L146.5 150.25V151H147.25L149.75 153.5H150.25L152.25 155.5H152.75C152.833 155.917 153.167 156.083 153.75 156L156 158.25V158.75L157 159.75V160.25L157.5 160.75V161.25C157.917 161.333 158.083 161.667 158 162.25L159 163.25V163.75L161 165.75C160.833 166.583 161 167.083 161.5 167.25V169.25L162 169.75V173.75L162.5 174.25V180.75L163 181.25V185.75L163.5 186.25V191.25L164 191.75V200.75C163.583 200.833 163.417 201.167 163.5 201.75L162.75 202.5L162.25 202H161.5V201.25L160.5 200.25V199.75C160.083 199.667 159.917 199.333 160 198.75L157.25 196H154.75L154.25 195.5H153.25C153.167 195.083 152.833 194.917 152.25 195L151.25 194H150.5V193.25L148.5 190.75V189.75L147.5 188.25V186.25L147 185.75C147.25 184.667 147.083 184 146.5 183.75V181.25L146 180.75V178.75L145.5 178.25V176.25L145 175.75V173.75L144.5 173.25V171.25C144.083 171.167 143.917 170.833 144 170.25L143.25 169.5L142.75 170H139.25C139 169.417 138.333 169.25 137.25 169.5C137.167 169.083 136.833 168.917 136.25 169L135.25 168H134.75L134.25 167.5H133.75L133.25 167H132.75L132.25 166.5H131.75L131.25 166H130.75L129.25 165L128 166.25V166.75L126 169.25V169.75C125.583 169.833 125.417 170.167 125.5 170.75L124.5 171.75V172.25L123.5 173.25V173.75C123.083 173.833 122.917 174.167 123 174.75L122 175.75V176.25L121 177.25V177.75L119 180.25V180.75C118.583 180.833 118.417 181.167 118.5 181.75L117.5 182.75V183.25C117.083 183.333 116.917 183.667 117 184.25L116 185.25V185.75L114 188.25V188.75C113.583 188.833 113.417 189.167 113.5 189.75L112.5 190.75V191.25L110.5 193.75V194.25C110.083 194.333 109.917 194.667 110 195.25L109 196.25V196.75L108 197.75V198.25L106 200.75V201.25C105.583 201.333 105.417 201.667 105.5 202.25L104.5 203.25V203.75L102.5 206.25V206.75C102.083 206.833 101.917 207.167 102 207.75L101 208.75V209.25L99 211.75V212.25C98.5833 212.333 98.4167 212.667 98.5 213.25L96.5 215.75V216.25C96.0833 216.333 95.9167 216.667 96 217.25L95 218.25V218.75L94 219.75V220.25L91.25 223H90.75L88.25 225H87.25L86.75 225.5C85.9167 225.333 85.4167 225.5 85.25 226H83.75L83.25 226.5H81.75L81.25 227H79.75L79.25 227.5H77.75L77.25 228H74.25L73.75 228.5H67.75L67.25 228H65.75C65.5833 227.5 65.0833 227.333 64.25 227.5C64.1667 227.083 63.8333 226.917 63.25 227L62.25 226H61.5V225.25L60.5 224.25C60.5833 223.667 60.4167 223.333 60 223.25C60.1667 222.417 60 221.917 59.5 221.75V220.25C60 220.083 60.1667 219.583 60 218.75L60.75 218C61.3333 218.083 61.6667 217.917 61.75 217.5H79.25L79.75 217H82.25L82.75 216.5H84.25L84.75 216H85.75C85.8333 215.583 86.1667 215.417 86.75 215.5L89 213.25V212.75L90.5 211.25V210.75L91.5 209.75V209.25C91.9167 209.167 92.0833 208.833 92 208.25L93 207.25V206.75L95 204.25V203.75C95.4167 203.667 95.5833 203.333 95.5 202.75L96.5 201.75V201.25L98.5 198.75V198.25C98.9167 198.167 99.0833 197.833 99 197.25L100 196.25V195.75L101 194.75V194.25L103 191.75V191.25C103.417 191.167 103.583 190.833 103.5 190.25L105.5 187.75V187.25C105.917 187.167 106.083 186.833 106 186.25L107 185.25V184.75L108 183.75V183.25L109 182.25V181.75L111 179.25V178.75C111.417 178.667 111.583 178.333 111.5 177.75L112.5 176.75V176.25L114.5 173.75V173.25C114.917 173.167 115.083 172.833 115 172.25L116 171.25V170.75L117 169.75V169.25L118 168.25V167.75L120 165.25V164.75C120.417 164.667 120.583 164.333 120.5 163.75L121.5 162.75C121.417 162.167 121.583 161.833 122 161.75V160.75L121.25 160H120.75L119.75 159H119.25L118.75 158.5H118.25L117.75 158H117.25L116.75 157.5H116.25C116.167 157.083 115.833 156.917 115.25 157L114.25 156H113.75L113.25 155.5H112.75C112.667 155.083 112.333 154.917 111.75 155L110.75 154H110.25L105 148.75C105.083 148.167 104.917 147.833 104.5 147.75V146.75L103.25 145.5H102.75L102.25 145H101.75C101.667 144.583 101.333 144.417 100.75 144.5L99.75 143.5H99.25L94.5 138.75V138.25L92.5 135.75V135.25L92 134.75V134.25L91.5 133.75V133.25L91 132.75V132.25L90.5 131.75V131.25L90 130.75V130.25L89 128.75V127.75L88.5 127.25V126.75L88 126.25V125.75L87.5 125.25V124.75L87 124.25V123.75L86.5 123.25V122.75L86 122.25V121.75L85.5 121.25V120.75C85.0833 120.667 84.9167 120.333 85 119.75L84 118.75V118.25L83 116.75V115.75L82 114.25C82.25 113.167 82.0833 112.5 81.5 112.25V110.25L81 109.75C81.25 108.667 81.0833 108 80.5 107.75V100.75L81 100.25V98.75C81.5 98.5833 81.6667 98.0833 81.5 97.25L80.5 96.25V95.75L79.5 94.25V93.25L79 92.75V92.25L78.5 91.75V91.25L78 90.75V90.25C77.5833 90.1667 77.4167 89.8333 77.5 89.25L76.5 88.25C76.5833 87.6667 76.4167 87.3333 76 87.25C76.25 86.1667 76.0833 85.5 75.5 85.25V82.25L75 81.75V80.75C74.5833 80.6667 74.4167 80.3333 74.5 79.75L73.5 78.75V78.25L73 77.75V77.25L72 75.75C72.25 74.6667 72.0833 74 71.5 73.75V71.75L71 71.25V69.25L70.5 68.75V66.75L70 66.25V64.75L69 63.25V62.5H66.25L65.75 63H63.25L62.75 63.5H52.75L52.25 64H50.75C50.6667 64.4167 50.3333 64.5833 49.75 64.5L49.25 64H48.25L47.75 63.5H46.75C46.5833 63 46.0833 62.8333 45.25 63C45.0833 63.5 44.5833 63.6667 43.75 63.5L42.25 65C41.6667 64.9167 41.3333 65.0833 41.25 65.5H40.25L39 66.75V68.25L38.5 68.75V69.25C38.0833 69.3333 37.9167 69.6667 38 70.25L36 72.25V73H35.25L29.75 78.5C29.1667 78.4167 28.8333 78.5833 28.75 79H25C25 79.1667 25 79.5833 25 80.25L25.5 80.75V82.75C25.0833 82.8333 24.9167 83.1667 25 83.75L23 85.75C23.0833 86.3333 22.9167 86.6667 22.5 86.75V88.75L22 89.25V92.25L21.5 92.75V95.25L21 95.75V98.25L20.5 98.75V103.75L20 104.25V107.75L19.5 108.25V108.75C19.0833 108.833 18.9167 109.167 19 109.75L17.75 111C17.1667 110.917 16.8333 111.083 16.75 111.5H14.75C14.5833 111 14.0833 110.833 13.25 111C13 111.583 12.3333 111.75 11.25 111.5L10.75 111H9.25L8.75 110.5H8.25C8.16667 110.083 7.83333 109.917 7.25 110L4 106.75V106.25L3 105.25V104.75L2 103.25V102.25L1.5 101.75C1.66667 100.917 1.5 100.417 1 100.25V98.75L0.5 98.25V91.75L1 91.25V89.25C1.58333 89 1.75 88.3333 1.5 87.25L2 86.75V85.75L2.5 85.25V84.25L3 83.75V82.75L3.5 82.25V81.25L4 80.75V79.75L4.5 79.25V78.25C5 78.0833 5.16667 77.5833 5 76.75L5.5 76.25V75.75L6 75.25V74.75C6.41667 74.6667 6.58333 74.3333 6.5 73.75L9.25 71H10.75C11 71.5833 11.6667 71.75 12.75 71.5L15 69.25V68.75L17 66.75V66.25L18.5 64.75V64.25L19.5 63.25V62.75L20.5 61.75V61.25L21.5 60.25V59.75L23 58.25V57.75L25 55.75V55.25L27.5 52.75V52.25L30 49.75V49.25C30.4167 49.1667 30.5833 48.8333 30.5 48.25L32.75 46H33.25C33.3333 45.5833 33.6667 45.4167 34.25 45.5L38.25 41.5H38.75L40.25 40H40.75L41.25 39.5H41.75L42.25 39H42.75L43.25 38.5H43.75L45.25 37.5H46.25L46.75 37C47.5833 37.1667 48.0833 37 48.25 36.5H49.75L50.25 36H52.75L53.25 35.5H55.25L55.75 35H57.25C57.4167 34.5 57.9167 34.3333 58.75 34.5C58.8333 34.0833 59.1667 33.9167 59.75 34L60.75 33H61.25L62.25 32H62.75L63.75 31H64.25C64.3333 30.5833 64.6667 30.4167 65.25 30.5L66.25 29.5H66.75C66.8333 29.0833 67.1667 28.9167 67.75 29L68.75 28H69.75L71.25 27C72.3333 27.25 73 27.0833 73.25 26.5H76.25L76.75 26H79.5V22.75L80 22.25V21.25C80.5 21.0833 80.6667 20.5833 80.5 19.75L81.5 18.25V16.75L82 16.25V14.25C82.5 14.0833 82.6667 13.5833 82.5 12.75L83 12.25V11.75L83.5 11.25V10.75L84.5 9.25V8.25L85 7.75V6.25C85.4167 6.16667 85.5833 5.83333 85.5 5.25L86.5 4.25V3.75L88.25 2C88.8333 1.91667 89.1667 2.08333 89.25 2.5H90.75L91.25 3H96.25L96.75 2.5H97.75L98.25 2H98.75L99.25 1.5H99.75L101.25 0.5ZM147.5 62.5L146.5 63.5V65.5C147.167 65.5 147.333 66 147 67L147.5 67.5V68.5L148 69V72L147.5 72.5L148.5 73H149L150.5 74.5H151L151.5 75.5V76L152.5 77C152.5 77.3333 152.667 77.6667 153 78V78.5L153.5 79V79.5L154 80V81.5L154.5 82C154.5 82.3333 154.667 82.5 155 82.5L155.5 82C155.5 81 155.667 80.5 156 80.5V79.5L157 78V77C157.667 76.6667 157.833 76.1667 157.5 75.5L158 75V74L158.5 73.5V72.5L159 72V70.5C159.333 70.1667 159.5 69.8333 159.5 69.5L158.5 68H158L157 67C156.333 67 156 66.8333 156 66.5H155.5L154 65C153.333 65 153 64.8333 153 64.5H152L151.5 64H150.5L149 63H148.5L148 62.5H147.5ZM128 117.5L126.5 119C126.833 119.667 126.667 120.167 126 120.5V122.5L125.5 123V125C126.167 125 126.333 125.667 126 127L127 128.5V129.5L128 131V131.5L128.5 132V132.5L129 133V133.5L129.5 134V134.5L130.5 135.5V136H131.5V137L133.5 138.5H134L135.5 140H136L136.5 139.5V139L137.5 138V137.5L138.5 136.5C138.5 135.833 138.667 135.5 139 135.5V135L140 134V133.5L141 132.5C141 131.833 141.167 131.5 141.5 131.5C141.5 130.833 141.333 130.5 141 130.5V130L140 129C140 128.333 139.833 128 139.5 128V127.5L139 127V126.5L137 124V123.5L136 122H135.5L134.5 121H134L133 120H132.5L131.5 119C130.833 119 130.5 118.833 130.5 118.5H130L129.5 118H129L128.5 117.5H128Z" fill="white"/>
<path d="M117.25 216H123.75L124.25 216.5H125.25L125.75 217H126.25C126.333 217.417 126.667 217.583 127.25 217.5L128.5 218.75V222.75C128.083 222.833 127.917 223.167 128 223.75L126.75 225C126.167 224.917 125.833 225.083 125.75 225.5H124.75L124.25 226H122.75L122.25 226.5H118.25L117.75 226H115.75L115.25 225.5H114.75C114.667 225.083 114.333 224.917 113.75 225L112.5 223.75C112.583 223.167 112.417 222.833 112 222.75V220.75C112.583 220.5 112.75 219.833 112.5 218.75L113.75 217.5H114.25L115.75 216.5H116.75L117.25 216Z" fill="white"/>
</g>
</svg>
